<svg xmlns="http://www.w3.org/2000/svg" version="1.1" viewBox="0 0 1422 800"><defs><linearGradient x1="50%" y1="0%" x2="50%" y2="100%" id="oooscillate-grad"><stop stop-color="#ffcc44" stop-opacity="1" offset="0%"></stop><stop stop-color="#3b3b3b" stop-opacity="1" offset="100%"></stop></linearGradient></defs><g stroke-width="20" stroke="url(#oooscillate-grad)" fill="none" stroke-linecap="round"><path d="M 0 1000 Q 355.5 -100 711 400 Q 1066.5 900 1422 1000" opacity="0.05"></path><path d="M 0 875 Q 355.5 -100 711 400 Q 1066.5 900 1422 875" opacity="0.19"></path><path d="M 0 750 Q 355.5 -100 711 400 Q 1066.5 900 1422 750" opacity="0.32"></path><path d="M 0 625 Q 355.5 -100 711 400 Q 1066.5 900 1422 625" opacity="0.46"></path><path d="M 0 500 Q 355.5 -100 711 400 Q 1066.5 900 1422 500" opacity="0.59"></path><path d="M 0 375 Q 355.5 -100 711 400 Q 1066.5 900 1422 375" opacity="0.73"></path><path d="M 0 250 Q 355.5 -100 711 400 Q 1066.5 900 1422 250" opacity="0.86"></path></g></svg>
