<svg xmlns="http://www.w3.org/2000/svg" viewBox="0 0 580.35 359.36"><title>cheers</title><style>
    @keyframes open {
    0% {transform: scaleY(1); }
    20% {transform: scaleY(1);}
    25% {transform: scaleY(0);}
    28% {transform: scaleY(1);}
    60% { translate: -16px 0;}
    75% {transform: scaleY(0); transform: scaleY(1);}
    80% {transform: scaleY(0); }
    84% {transform: scaleY(1);}
    100% {translate: 0 0;}
    }
    .left-eye{
        transform-origin: 139.29px 167.59px;
    }
    .right-eye{
        transform-origin: 200.81px 168.05px;
    }
    .left-eye, .right-eye {
    animation-name: open;
    animation-duration: 4.5s;
    animation-iteration-count: infinite;
    }


</style><rect x="425.65" y="111.33" width="116.82" height="151.06" rx="12.51" ry="12.51" transform="translate(-28.5 106.18) rotate(-12.16)" style="fill:#f6a61b;stroke:#010101;stroke-linecap:round;stroke-linejoin:round;stroke-width:5px"/><path d="M445.43,67.66a19,19,0,0,1,12.06,2.61c1.7,1,2.66,1.85,6.17,5.36l3.18,3.16,2-3.75a43.76,43.76,0,0,1,4.63-7.66,23.89,23.89,0,0,1,4.11-4,24.89,24.89,0,0,1,7.3-4.06,33.11,33.11,0,0,1,6.59-1.37A25.57,25.57,0,0,1,519,83.12c.1,1.55.2,2.84.22,2.84l1.87.67A22.13,22.13,0,0,1,527,89.35a16.74,16.74,0,0,1,2.8,2.12,19.4,19.4,0,0,1,4.31,6.16,23.15,23.15,0,0,1,1.46,5.74,19.09,19.09,0,0,1-3.67,13,18.9,18.9,0,0,1-15.2,7.8,16.87,16.87,0,0,1-4.29-.51,35.94,35.94,0,0,1-6.76-2.57,21.1,21.1,0,0,0-3.25-1.28c0,.06-.49,1.92-1,4.13s-1.14,4.61-1.38,5.32A25.61,25.61,0,0,1,468,145.49a25.31,25.31,0,0,1-12.28-8.44c-.55-.68-2-2.73-3.26-4.55a18.94,18.94,0,0,0-2.36-3.18c-.8,1-5.41,6.07-6.06,6.71a27.78,27.78,0,0,1-9.38,6.08,30.58,30.58,0,0,1-6.13,1.38,26.91,26.91,0,0,1-16.54-4,25.27,25.27,0,0,1-6.38-5.83,24.43,24.43,0,0,1-4-7.07,30.93,30.93,0,0,1-1.48-7.14,25.87,25.87,0,0,1,18.22-26.27c1.74-.53,2.35-.63,6.77-1,1.87-.17,3.42-.34,3.44-.37s0-1.43.06-3.12a22.9,22.9,0,0,1,.57-6.42,18.21,18.21,0,0,1,2.31-5.62A19.11,19.11,0,0,1,445.43,67.66Z" style="fill:#fff;stroke:#010101;stroke-linejoin:round;stroke-width:5px"/><path d="M536,127.25c16.9.15,32,9.12,38.5,22.86a31.74,31.74,0,0,1,2.53,7.66,31.23,31.23,0,0,1,.86,8.1,39.45,39.45,0,0,1-9.13,24,46.94,46.94,0,0,1-18.89,13.72c-1.06.43-2,.8-2.08.82s-3-13.06-8.44-38.46L531,127.42l1.7-.09C533.63,127.27,535.09,127.24,536,127.25Z" style="fill:none;stroke:#010101;stroke-linecap:round;stroke-linejoin:round;stroke-width:5px"/><line x1="448.05" y1="167.22" x2="462.38" y2="233.72" style="fill:none;stroke:#010101;stroke-linecap:round;stroke-miterlimit:10;stroke-width:5px"/><line x1="475.94" y1="161.21" x2="490.95" y2="230.86" style="fill:none;stroke:#010101;stroke-linecap:round;stroke-miterlimit:10;stroke-width:5px"/><line x1="503.83" y1="155.2" x2="518.16" y2="221.7" style="fill:none;stroke:#010101;stroke-linecap:round;stroke-miterlimit:10;stroke-width:5px"/><rect x="284.02" y="106.93" width="116.82" height="151.06" rx="12.51" ry="12.51" transform="translate(599.26 473.29) rotate(-159.5)" style="fill:#f6a61b;stroke:#010101;stroke-linecap:round;stroke-linejoin:round;stroke-width:5px"/><path d="M410.41,81a18.08,18.08,0,0,1,1.47,5.9,22.88,22.88,0,0,1-.37,6.44c-.22,1.67-.4,3.06-.39,3.09s1.52.43,3.35.87c4.31,1,4.9,1.24,6.55,2a25.85,25.85,0,0,1,14.21,28.63,30.3,30.3,0,0,1-2.5,6.85,24.3,24.3,0,0,1-5,6.42,25,25,0,0,1-7.16,4.84,26.83,26.83,0,0,1-16.94,1.57,30.7,30.7,0,0,1-5.87-2.25,27.81,27.81,0,0,1-8.4-7.38c-.55-.72-4.37-6.44-5-7.52a19.66,19.66,0,0,0-2.8,2.81c-1.5,1.62-3.24,3.43-3.88,4a25.35,25.35,0,0,1-13.38,6.57A25.63,25.63,0,0,1,335,123.2c-.13-.74-.41-3.2-.59-5.47s-.37-4.16-.4-4.23a22.42,22.42,0,0,0-3.4.79,35.81,35.81,0,0,1-7.06,1.57,17.24,17.24,0,0,1-4.32-.11,18.9,18.9,0,0,1-13.9-9.93,19.1,19.1,0,0,1-1.74-13.44,23.2,23.2,0,0,1,2.27-5.48A19.53,19.53,0,0,1,311,81.43a17.65,17.65,0,0,1,3.07-1.69,22.16,22.16,0,0,1,6.26-1.83l1.94-.38s.32-1.26.63-2.79a26.38,26.38,0,0,1,3.46-9.38,25.94,25.94,0,0,1,27.47-11.57,33.44,33.44,0,0,1,6.33,2.31,25,25,0,0,1,6.63,5.08,23.44,23.44,0,0,1,3.47,4.6A43.16,43.16,0,0,1,373.73,74l1.41,4,3.61-2.67c4-3,5.05-3.63,6.88-4.4a18.92,18.92,0,0,1,24.78,10Z" style="fill:#fff;stroke:#010101;stroke-linejoin:round;stroke-width:5px"/><path d="M302.94,116.5l1.67.34-13.79,36.87c-9.1,24.35-13.84,36.87-13.94,36.83s-.95-.53-1.93-1.1a47,47,0,0,1-16.71-16.32,39.53,39.53,0,0,1-5.56-25,38.46,38.46,0,0,1,5.65-15.1c8.42-12.65,24.66-19.34,41.4-17C300.59,116.07,302,116.31,302.94,116.5Z" style="fill:none;stroke:#010101;stroke-linecap:round;stroke-linejoin:round;stroke-width:5px"/><line x1="380.91" y1="168.25" x2="357.08" y2="231.97" style="fill:none;stroke:#010101;stroke-linecap:round;stroke-miterlimit:10;stroke-width:5px"/><line x1="354.19" y1="158.26" x2="329.23" y2="224.99" style="fill:none;stroke:#010101;stroke-linecap:round;stroke-miterlimit:10;stroke-width:5px"/><line x1="327.47" y1="148.27" x2="303.64" y2="211.99" style="fill:none;stroke:#010101;stroke-linecap:round;stroke-miterlimit:10;stroke-width:5px"/><line x1="420.73" y1="19.44" x2="418.85" y2="53.51" style="fill:none;stroke:#010101;stroke-linecap:round;stroke-linejoin:round;stroke-width:5px"/><line x1="453.01" y1="27.59" x2="433.41" y2="55.22" style="fill:none;stroke:#010101;stroke-linecap:round;stroke-linejoin:round;stroke-width:5px"/><line x1="388.23" y1="23.8" x2="403.86" y2="53.79" style="fill:none;stroke:#010101;stroke-linecap:round;stroke-linejoin:round;stroke-width:5px"/><path d="M119.06,146S73.63,161.42,47,182.58C21.07,203.2,3.58,233.87,2.8,240.42-.46,268,23.5,269.24,35.88,269.49S110.43,250.35,113.2,240,119.06,146,119.06,146Z" style="fill:#fff;stroke:#000;stroke-miterlimit:10;stroke-width:5px"/><path d="M214.35,150.83s43.66,19.88,68,43.6c23.74,23.12,38.07,55.4,38.18,62,.48,27.81-23.49,26.6-35.83,25.6s-72.25-26.54-74-37.13S214.35,150.83,214.35,150.83Z" style="fill:#fff;stroke:#000;stroke-miterlimit:10;stroke-width:5px"/><path d="M42.65,217.09s25.11-32.72,56.29-40.53" style="fill:none;stroke:#000;stroke-linecap:round;stroke-miterlimit:10;stroke-width:5px"/><path d="M277.07,228.89s-21.7-35.07-51.93-46" style="fill:none;stroke:#000;stroke-linecap:round;stroke-miterlimit:10;stroke-width:5px"/><path d="M160.3,296.22c-17.56-.89-33.67,0-46,2.26,6.25,16.86,16,30,31.09,32.09l.11.62c4.19.42,8.51.76,13,1l4.28.18c.15-.57.24-.89.24-.89,15.72-.59,27-13.45,34.91-30.38A227.09,227.09,0,0,0,160.3,296.22Z" style="fill:#f7a61a"/><path d="M115.34,301.07c12.46,1.73,26,3,40.2,3.73s27.81.8,40.37.32c7.19-13.7,12-30.78,15.05-46.29a442.91,442.91,0,0,0-52.82-5.71,442.42,442.42,0,0,0-53.11.37C106.53,269.24,109.57,286.71,115.34,301.07Z" style="fill:#3b2516"/><path d="M107.41,271.56A447.67,447.67,0,0,0,157,276.72a449.45,449.45,0,0,0,49.81-.15,282.39,282.39,0,0,0,8.32-45.34A435.59,435.59,0,0,0,159.56,225a435,435,0,0,0-55.87.58A281.71,281.71,0,0,0,107.41,271.56Z" style="fill:#f7a61a"/><path d="M105.12,200.14c-.48,5.44-.86,10.14-1.1,13.47a256.08,256.08,0,0,0,.34,31.75,437.66,437.66,0,0,0,53.88,5.89,436.75,436.75,0,0,0,54.19-.45A258.23,258.23,0,0,0,216,219.24c.09-3.33.18-8.05.26-13.5a435.88,435.88,0,0,0-55.39-6.17A436.51,436.51,0,0,0,105.12,200.14Z" style="fill:#3b2516"/><path d="M109.93,148.29c-1.57,16.28-5,51.93-5.91,65.32,0,.49-.07,1-.1,1.65a295,295,0,0,0,55.73,7.91,295.24,295.24,0,0,0,56.25-2.27c0-.6,0-1.16.07-1.66.39-13.41.6-49.22.68-65.57a297.72,297.72,0,0,0-53.13-7.27A298.23,298.23,0,0,0,109.93,148.29Z" style="fill:#f7a61a"/><path d="M147.87,328.09l12.95.65q-1.27,5.5-2.9,11.35c-1.55,5.53-3.2,10.75-4.91,15.67-1.29-5-2.49-10.36-3.48-16.12C148.83,335.63,148.29,331.78,147.87,328.09Z"/><path d="M153.1,356.86c3.91-3.18,9.91-25.4,9.91-25.4,42.88-1.6,52.45-94.6,53-112.22s.72-73.92.72-73.92l-52.77-3h-.39L110.73,140s-5.45,56-6.71,73.63-1.09,111.07,41.41,117c0,0,3.74,22.72,7.31,26.28" style="fill:none;stroke:#000;stroke-linecap:round;stroke-miterlimit:10;stroke-width:5px"/><path d="M129.54,199c-.5,0-1,0-1.51,0A29.49,29.49,0,0,1,129.49,140c.5,0,1,0,1.51,0a29.5,29.5,0,0,1-1.46,59Z" style="fill:#fff"/><path d="M129.49,142.47l1.39,0a27,27,0,0,1-1.34,54l-1.38,0a27,27,0,0,1,1.33-54m0-5h0a32,32,0,0,0-1.58,63.95c.54,0,1.09,0,1.63,0a32,32,0,0,0,1.59-64c-.55,0-1.09,0-1.64,0Z"/><ellipse class="left-eye" cx="139.29" cy="167.59" ry="5.62" rx="5.62"/><path d="M193.58,202.19c-.5,0-1,0-1.51,0a29.5,29.5,0,0,1,1.46-59c.5,0,1,0,1.51,0a29.5,29.5,0,0,1-1.46,59Z" style="fill:#fff"/><path d="M193.53,145.69c.46,0,.92,0,1.38,0a27,27,0,0,1-1.33,54c-.46,0-.92,0-1.38,0a27,27,0,0,1,1.33-54m0-5h0a32,32,0,0,0-1.59,63.95c.55,0,1.09.05,1.64.05a32,32,0,0,0,1.58-64c-.54,0-1.09,0-1.63,0Z"/><ellipse class="right-eye" cx="200.81" cy="168.05" ry="5.62" rx="5.62"/><path d="M229.26,134.5c.3-5.85-4.58-11.34-12.51-15.29.13-.85.23-1.72.28-2.59.87-17.27-15.45-32.13-36.44-33.19A44.7,44.7,0,0,0,163,86c-2.72-2.52-10.71-9.21-22.22-9.49-14.4-.36-28.3,9.44-31.67,21.3-.55,1.92-3.12,11,1.75,17.36a13.55,13.55,0,0,0,2.86,2.77c-1.18,1.43-10.86,13.43-6.78,22.94,4.44,10.36,22.06,10.49,30.81,10.56h.57l-.48,5.09a7.5,7.5,0,0,0,15,.76c.38-7.48.34-5.27.6-7.64.09-.78,2-.95,3.82-1a9,9,0,0,1,4,.77q-.58,18.4-1.15,36.82a5.62,5.62,0,0,0,11.23.57c1.42-12.41,2.63-23.29,4-35.7a88.88,88.88,0,0,0,16.43,2.24,58.76,58.76,0,0,0,15-.66c0,2.23,0,4.46.08,6.7.07,4.27,2.48,6.86,4.35,7.13s2.85-2,3.92-6.37q.56-6,1.1-12C224,145,229,140.14,229.26,134.5Z" style="fill:#fff;stroke:#000;stroke-miterlimit:10;stroke-width:5px"/><path d="M149,207.52a11.73,11.73,0,0,0,21.35,1.07" style="fill:none;stroke:#1d1f1c;stroke-linecap:round;stroke-miterlimit:10;stroke-width:5px"/><circle cx="96.62" cy="8.34" r="8.34"/><path d="M158.52,104.29s7.85-88.77-66.29-96.45" style="fill:none;stroke:#000;stroke-miterlimit:10;stroke-width:5px"/><path d="M177.7,107.32s-1.9-89.08,71.92-90" style="fill:none;stroke:#000;stroke-miterlimit:10;stroke-width:5px"/><circle cx="249.33" cy="17.54" r="8.34"/><path d="M152.85,103.11a9.1,9.1,0,0,0,9.75,2" style="fill:none;stroke:#000;stroke-linecap:round;stroke-miterlimit:10;stroke-width:5px"/><path d="M172.33,107.61a10.73,10.73,0,0,0,10-.76" style="fill:none;stroke:#000;stroke-linecap:round;stroke-miterlimit:10;stroke-width:5px"/></svg>
